<svg width="32" height="32" viewBox="0 0 32 32" fill="none" xmlns="http://www.w3.org/2000/svg">
<g opacity="0.6">
<path d="M16.0001 5.97314C14.9927 5.97314 14.008 6.27186 13.1704 6.83153C12.3328 7.39119 11.6799 8.18666 11.2944 9.11734C10.9089 10.048 10.8081 11.0721 11.0046 12.0601C11.2011 13.0481 11.6862 13.9557 12.3985 14.668C13.1109 15.3803 14.0184 15.8654 15.0064 16.0619C15.9944 16.2585 17.0185 16.1576 17.9492 15.7721C18.8799 15.3866 19.6754 14.7338 20.235 13.8962C20.7947 13.0586 21.0934 12.0738 21.0934 11.0665C21.0934 9.71564 20.5568 8.42013 19.6016 7.46495C18.6464 6.50976 17.3509 5.97314 16.0001 5.97314V5.97314ZM16.0001 14.382C15.3443 14.382 14.7033 14.1876 14.158 13.8233C13.6128 13.4589 13.1878 12.9411 12.9369 12.3353C12.686 11.7294 12.6203 11.0628 12.7482 10.4196C12.8762 9.77649 13.1919 9.18572 13.6556 8.72203C14.1193 8.25834 14.7101 7.94256 15.3532 7.81463C15.9964 7.6867 16.663 7.75236 17.2689 8.0033C17.8747 8.25425 18.3925 8.67921 18.7569 9.22445C19.1212 9.76969 19.3156 10.4107 19.3156 11.0665C19.3133 11.9443 18.9629 12.7853 18.3414 13.4052C17.7199 14.0251 16.8779 14.3731 16.0001 14.3731V14.382Z" fill="white"/>
<path d="M15.9999 1.77783C13.2312 1.78014 10.5759 2.878 8.61397 4.83161C6.65203 6.78521 5.5429 9.43582 5.52881 12.2045C5.52881 16.3556 7.8577 19.8312 9.56436 22.3645L9.87547 22.8267C11.5735 25.2877 13.3951 27.6611 15.3333 29.9378L16.0088 30.7289L16.6844 29.9378C18.6223 27.6609 20.4439 25.2875 22.1421 22.8267L22.4533 22.3556C24.151 19.8223 26.4799 16.3556 26.4799 12.2045C26.4658 9.43428 25.3555 6.78233 23.3916 4.82847C21.4277 2.87461 18.7702 1.7778 15.9999 1.77783V1.77783ZM20.9688 21.3334L20.6488 21.8045C19.1199 24.0978 17.0933 26.6667 15.9999 27.9378C14.951 26.6667 12.8799 24.0978 11.351 21.8045L11.0399 21.3334C9.46659 18.9867 7.30659 15.7778 7.30659 12.1689C7.30659 11.0273 7.53145 9.89687 7.96833 8.84215C8.40521 7.78743 9.04555 6.82908 9.8528 6.02183C10.6601 5.21458 11.6184 4.57423 12.6731 4.13735C13.7278 3.70047 14.8583 3.47561 15.9999 3.47561C17.1415 3.47561 18.272 3.70047 19.3267 4.13735C20.3814 4.57423 21.3398 5.21458 22.147 6.02183C22.9543 6.82908 23.5946 7.78743 24.0315 8.84215C24.4684 9.89687 24.6933 11.0273 24.6933 12.1689C24.6933 15.8134 22.5421 19.0223 20.9688 21.3334V21.3334Z" fill="white"/>
</g>
</svg>
