<svg width="206" height="206" viewBox="0 0 206 206" fill="none" xmlns="http://www.w3.org/2000/svg">
<rect width="206" height="206" rx="45" fill="#69C600"/>
<path d="M21.82 93V65H33.94C36.4467 65 38.6067 65.4133 40.42 66.24C42.2333 67.04 43.6333 68.2 44.62 69.72C45.6067 71.24 46.1 73.0533 46.1 75.16C46.1 77.24 45.6067 79.04 44.62 80.56C43.6333 82.08 42.2333 83.2533 40.42 84.08C38.6067 84.88 36.4467 85.28 33.94 85.28H25.42L28.3 82.36V93H21.82ZM28.3 83.08L25.42 80H33.58C35.58 80 37.0733 79.5733 38.06 78.72C39.0467 77.8667 39.54 76.68 39.54 75.16C39.54 73.6133 39.0467 72.4133 38.06 71.56C37.0733 70.7067 35.58 70.28 33.58 70.28H25.42L28.3 67.2V83.08ZM63.2909 93V88.8L62.8909 87.88V80.36C62.8909 79.0267 62.4776 77.9867 61.6509 77.24C60.8509 76.4933 59.6109 76.12 57.9309 76.12C56.7843 76.12 55.6509 76.3067 54.5309 76.68C53.4376 77.0267 52.5043 77.5067 51.7309 78.12L49.4909 73.76C50.6643 72.9333 52.0776 72.2933 53.7309 71.84C55.3843 71.3867 57.0643 71.16 58.7709 71.16C62.0509 71.16 64.5976 71.9333 66.4109 73.48C68.2243 75.0267 69.1309 77.44 69.1309 80.72V93H63.2909ZM56.7309 93.32C55.0509 93.32 53.6109 93.04 52.4109 92.48C51.2109 91.8933 50.2909 91.1067 49.6509 90.12C49.0109 89.1333 48.6909 88.0267 48.6909 86.8C48.6909 85.52 48.9976 84.4 49.6109 83.44C50.2509 82.48 51.2509 81.7333 52.6109 81.2C53.9709 80.64 55.7443 80.36 57.9309 80.36H63.6509V84H58.6109C57.1443 84 56.1309 84.24 55.5709 84.72C55.0376 85.2 54.7709 85.8 54.7709 86.52C54.7709 87.32 55.0776 87.96 55.6909 88.44C56.3309 88.8933 57.1976 89.12 58.2909 89.12C59.3309 89.12 60.2643 88.88 61.0909 88.4C61.9176 87.8933 62.5176 87.16 62.8909 86.2L63.8509 89.08C63.3976 90.4667 62.5709 91.52 61.3709 92.24C60.1709 92.96 58.6243 93.32 56.7309 93.32ZM84.1747 93.32C82.148 93.32 80.3214 92.8667 78.6947 91.96C77.068 91.0267 75.7747 89.7333 74.8147 88.08C73.8814 86.4267 73.4147 84.48 73.4147 82.24C73.4147 79.9733 73.8814 78.0133 74.8147 76.36C75.7747 74.7067 77.068 73.4267 78.6947 72.52C80.3214 71.6133 82.148 71.16 84.1747 71.16C85.988 71.16 87.5747 71.56 88.9347 72.36C90.2947 73.16 91.348 74.3733 92.0947 76C92.8414 77.6267 93.2147 79.7067 93.2147 82.24C93.2147 84.7467 92.8547 86.8267 92.1347 88.48C91.4147 90.1067 90.3747 91.32 89.0147 92.12C87.6814 92.92 86.068 93.32 84.1747 93.32ZM85.2547 88.2C86.268 88.2 87.188 87.96 88.0147 87.48C88.8414 87 89.4947 86.32 89.9747 85.44C90.4814 84.5333 90.7347 83.4667 90.7347 82.24C90.7347 80.9867 90.4814 79.92 89.9747 79.04C89.4947 78.16 88.8414 77.48 88.0147 77C87.188 76.52 86.268 76.28 85.2547 76.28C84.2147 76.28 83.2814 76.52 82.4547 77C81.628 77.48 80.9614 78.16 80.4547 79.04C79.9747 79.92 79.7347 80.9867 79.7347 82.24C79.7347 83.4667 79.9747 84.5333 80.4547 85.44C80.9614 86.32 81.628 87 82.4547 87.48C83.2814 87.96 84.2147 88.2 85.2547 88.2ZM90.8947 93V88.6L91.0147 82.2L90.6147 75.84V63.32H96.8547V93H90.8947ZM115.83 93V88.8L115.43 87.88V80.36C115.43 79.0267 115.017 77.9867 114.19 77.24C113.39 76.4933 112.15 76.12 110.47 76.12C109.323 76.12 108.19 76.3067 107.07 76.68C105.977 77.0267 105.043 77.5067 104.27 78.12L102.03 73.76C103.203 72.9333 104.617 72.2933 106.27 71.84C107.923 71.3867 109.603 71.16 111.31 71.16C114.59 71.16 117.137 71.9333 118.95 73.48C120.763 75.0267 121.67 77.44 121.67 80.72V93H115.83ZM109.27 93.32C107.59 93.32 106.15 93.04 104.95 92.48C103.75 91.8933 102.83 91.1067 102.19 90.12C101.55 89.1333 101.23 88.0267 101.23 86.8C101.23 85.52 101.537 84.4 102.15 83.44C102.79 82.48 103.79 81.7333 105.15 81.2C106.51 80.64 108.283 80.36 110.47 80.36H116.19V84H111.15C109.683 84 108.67 84.24 108.11 84.72C107.577 85.2 107.31 85.8 107.31 86.52C107.31 87.32 107.617 87.96 108.23 88.44C108.87 88.8933 109.737 89.12 110.83 89.12C111.87 89.12 112.803 88.88 113.63 88.4C114.457 87.8933 115.057 87.16 115.43 86.2L116.39 89.08C115.937 90.4667 115.11 91.52 113.91 92.24C112.71 92.96 111.163 93.32 109.27 93.32ZM140.398 71.16C142.104 71.16 143.624 71.5067 144.958 72.2C146.318 72.8667 147.384 73.9067 148.158 75.32C148.931 76.7067 149.318 78.4933 149.318 80.68V93H143.078V81.64C143.078 79.9067 142.691 78.6267 141.918 77.8C141.171 76.9733 140.104 76.56 138.718 76.56C137.731 76.56 136.838 76.7733 136.038 77.2C135.264 77.6 134.651 78.2267 134.198 79.08C133.771 79.9333 133.558 81.0267 133.558 82.36V93H127.318V71.48H133.278V77.44L132.158 75.64C132.931 74.2 134.038 73.0933 135.478 72.32C136.918 71.5467 138.558 71.16 140.398 71.16ZM165.25 101.08C163.223 101.08 161.263 100.827 159.37 100.32C157.503 99.84 155.943 99.1067 154.69 98.12L157.17 93.64C158.077 94.3867 159.223 94.9733 160.61 95.4C162.023 95.8533 163.41 96.08 164.77 96.08C166.983 96.08 168.583 95.5867 169.57 94.6C170.583 93.6133 171.09 92.1467 171.09 90.2V86.96L171.49 81.56L171.41 76.12V71.48H177.33V89.4C177.33 93.4 176.29 96.3467 174.21 98.24C172.13 100.133 169.143 101.08 165.25 101.08ZM164.29 91.96C162.29 91.96 160.477 91.5333 158.85 90.68C157.25 89.8 155.957 88.5867 154.97 87.04C154.01 85.4667 153.53 83.64 153.53 81.56C153.53 79.4533 154.01 77.6267 154.97 76.08C155.957 74.5067 157.25 73.2933 158.85 72.44C160.477 71.5867 162.29 71.16 164.29 71.16C166.103 71.16 167.703 71.5333 169.09 72.28C170.477 73 171.557 74.1333 172.33 75.68C173.103 77.2 173.49 79.16 173.49 81.56C173.49 83.9333 173.103 85.8933 172.33 87.44C171.557 88.96 170.477 90.0933 169.09 90.84C167.703 91.5867 166.103 91.96 164.29 91.96ZM165.53 86.84C166.623 86.84 167.597 86.6267 168.45 86.2C169.303 85.7467 169.97 85.12 170.45 84.32C170.93 83.52 171.17 82.6 171.17 81.56C171.17 80.4933 170.93 79.5733 170.45 78.8C169.97 78 169.303 77.3867 168.45 76.96C167.597 76.5067 166.623 76.28 165.53 76.28C164.437 76.28 163.463 76.5067 162.61 76.96C161.757 77.3867 161.077 78 160.57 78.8C160.09 79.5733 159.85 80.4933 159.85 81.56C159.85 82.6 160.09 83.52 160.57 84.32C161.077 85.12 161.757 85.7467 162.61 86.2C163.463 86.6267 164.437 86.84 165.53 86.84ZM26.98 142.48C25.0867 142.48 23.34 142.133 21.74 141.44C20.1667 140.72 18.8733 139.707 17.86 138.4L21.46 134.08C22.2333 135.093 23.0467 135.867 23.9 136.4C24.7533 136.907 25.6733 137.16 26.66 137.16C29.3 137.16 30.62 135.613 30.62 132.52V119.2H20.78V114H37.06V132.16C37.06 135.627 36.2067 138.213 34.5 139.92C32.7933 141.627 30.2867 142.48 26.98 142.48ZM53.2606 142.32C50.9673 142.32 48.9273 141.84 47.1406 140.88C45.3806 139.92 43.9806 138.613 42.9406 136.96C41.9273 135.28 41.4206 133.373 41.4206 131.24C41.4206 129.08 41.9273 127.173 42.9406 125.52C43.9806 123.84 45.3806 122.533 47.1406 121.6C48.9273 120.64 50.9673 120.16 53.2606 120.16C55.5273 120.16 57.554 120.64 59.3406 121.6C61.1273 122.533 62.5273 123.827 63.5406 125.48C64.554 127.133 65.0606 129.053 65.0606 131.24C65.0606 133.373 64.554 135.28 63.5406 136.96C62.5273 138.613 61.1273 139.92 59.3406 140.88C57.554 141.84 55.5273 142.32 53.2606 142.32ZM53.2606 137.2C54.3006 137.2 55.234 136.96 56.0606 136.48C56.8873 136 57.5406 135.32 58.0206 134.44C58.5006 133.533 58.7406 132.467 58.7406 131.24C58.7406 129.987 58.5006 128.92 58.0206 128.04C57.5406 127.16 56.8873 126.48 56.0606 126C55.234 125.52 54.3006 125.28 53.2606 125.28C52.2206 125.28 51.2873 125.52 50.4606 126C49.634 126.48 48.9673 127.16 48.4606 128.04C47.9806 128.92 47.7406 129.987 47.7406 131.24C47.7406 132.467 47.9806 133.533 48.4606 134.44C48.9673 135.32 49.634 136 50.4606 136.48C51.2873 136.96 52.2206 137.2 53.2606 137.2ZM78.3116 142.32C76.5249 142.32 74.9249 141.973 73.5116 141.28C72.1249 140.587 71.0449 139.533 70.2716 138.12C69.4982 136.68 69.1116 134.853 69.1116 132.64V120.48H75.3516V131.72C75.3516 133.507 75.7249 134.827 76.4716 135.68C77.2449 136.507 78.3249 136.92 79.7116 136.92C80.6716 136.92 81.5249 136.72 82.2716 136.32C83.0182 135.893 83.6049 135.253 84.0316 134.4C84.4582 133.52 84.6716 132.427 84.6716 131.12V120.48H90.9116V142H84.9916V136.08L86.0716 137.8C85.3516 139.293 84.2849 140.427 82.8716 141.2C81.4849 141.947 79.9649 142.32 78.3116 142.32ZM96.6925 142V120.48H102.653V126.56L101.813 124.8C102.453 123.28 103.479 122.133 104.893 121.36C106.306 120.56 108.026 120.16 110.053 120.16V125.92C109.786 125.893 109.546 125.88 109.333 125.88C109.119 125.853 108.893 125.84 108.653 125.84C106.946 125.84 105.559 126.333 104.493 127.32C103.453 128.28 102.933 129.787 102.933 131.84V142H96.6925ZM126.882 120.16C128.589 120.16 130.109 120.507 131.442 121.2C132.802 121.867 133.869 122.907 134.642 124.32C135.415 125.707 135.802 127.493 135.802 129.68V142H129.562V130.64C129.562 128.907 129.175 127.627 128.402 126.8C127.655 125.973 126.589 125.56 125.202 125.56C124.215 125.56 123.322 125.773 122.522 126.2C121.749 126.6 121.135 127.227 120.682 128.08C120.255 128.933 120.042 130.027 120.042 131.36V142H113.802V120.48H119.762V126.44L118.642 124.64C119.415 123.2 120.522 122.093 121.962 121.32C123.402 120.547 125.042 120.16 126.882 120.16ZM152.294 142.32C149.841 142.32 147.681 141.84 145.814 140.88C143.974 139.92 142.548 138.613 141.534 136.96C140.521 135.28 140.014 133.373 140.014 131.24C140.014 129.08 140.508 127.173 141.494 125.52C142.508 123.84 143.881 122.533 145.614 121.6C147.348 120.64 149.308 120.16 151.494 120.16C153.601 120.16 155.494 120.613 157.174 121.52C158.881 122.4 160.228 123.68 161.214 125.36C162.201 127.013 162.694 129 162.694 131.32C162.694 131.56 162.681 131.84 162.654 132.16C162.628 132.453 162.601 132.733 162.574 133H145.094V129.36H159.294L156.894 130.44C156.894 129.32 156.668 128.347 156.214 127.52C155.761 126.693 155.134 126.053 154.334 125.6C153.534 125.12 152.601 124.88 151.534 124.88C150.468 124.88 149.521 125.12 148.694 125.6C147.894 126.053 147.268 126.707 146.814 127.56C146.361 128.387 146.134 129.373 146.134 130.52V131.48C146.134 132.653 146.388 133.693 146.894 134.6C147.428 135.48 148.161 136.16 149.094 136.64C150.054 137.093 151.174 137.32 152.454 137.32C153.601 137.32 154.601 137.147 155.454 136.8C156.334 136.453 157.134 135.933 157.854 135.24L161.174 138.84C160.188 139.96 158.948 140.827 157.454 141.44C155.961 142.027 154.241 142.32 152.294 142.32ZM169.178 150.08C168.058 150.08 166.951 149.907 165.858 149.56C164.765 149.213 163.871 148.733 163.178 148.12L165.458 143.68C165.938 144.107 166.485 144.44 167.098 144.68C167.738 144.92 168.365 145.04 168.978 145.04C169.858 145.04 170.551 144.827 171.058 144.4C171.591 144 172.071 143.32 172.498 142.36L173.618 139.72L174.098 139.04L181.818 120.48H187.818L178.098 143.32C177.405 145.053 176.605 146.413 175.698 147.4C174.818 148.387 173.831 149.08 172.738 149.48C171.671 149.88 170.485 150.08 169.178 150.08ZM172.858 142.84L163.258 120.48H169.698L177.138 138.48L172.858 142.84Z" fill="white"/>
</svg>
